<?xml version="1.0" standalone="no"?><!DOCTYPE svg PUBLIC "-//W3C//DTD SVG 1.1//EN"
        "http://www.w3.org/Graphics/SVG/1.1/DTD/svg11.dtd">
<svg
        class="icon" viewBox="0 0 1024 1024" version="1.1" xmlns="http://www.w3.org/2000/svg"
        xmlns:xlink="http://www.w3.org/1999/xlink" width="16" height="16">
    <defs>
        <style type="text/css"></style>
    </defs>
    <path d="M169.658182 1024C114.222545 1024 69.818182 978.385455 69.818182 922.717091V101.282909C69.818182 45.614545 114.222545 0 169.658182 0h523.170909l240.034909 246.690909V930.909091a93.090909 93.090909 0 0 1-93.090909 93.090909H169.658182zM653.498182 93.090909H169.658182C166.167273 93.090909 162.909091 96.488727 162.909091 101.282909v821.434182c0 4.794182 3.304727 8.192 6.749091 8.192h670.114909V284.485818L653.544727 93.090909z"
          fill="#1296db"></path>
    <path d="M225.373091 439.016727h73.728l74.845091 303.290182h2.234182l78.754909-303.290182h67.584l78.754909 303.290182h2.234182l74.845091-303.290182h73.728L637.021091 837.818182h-69.259636L490.123636 537.879273h-2.234181L409.693091 837.818182h-69.818182z"
          fill="#1296db"></path>
    <path d="M232.727273 221.090909h325.818182a34.909091 34.909091 0 0 0 0-69.818182h-325.818182a34.909091 34.909091 0 0 0 0 69.818182zM232.727273 360.727273H674.909091a34.909091 34.909091 0 1 0 0-69.818182H232.727273a34.909091 34.909091 0 0 0 0 69.818182z"
          fill="#1296db"></path>
</svg>